<?xml version="1.0" encoding="utf-8"?>
<!-- Generator: Adobe Illustrator 16.0.3, SVG Export Plug-In . SVG Version: 6.00 Build 0)  -->
<!DOCTYPE svg PUBLIC "-//W3C//DTD SVG 1.1//EN" "http://www.w3.org/Graphics/SVG/1.1/DTD/svg11.dtd">
<svg version="1.1" id="Layer_1" xmlns="http://www.w3.org/2000/svg" xmlns:xlink="http://www.w3.org/1999/xlink" x="0px" y="0px"
	 width="300px" height="150px" viewBox="0 0 300 150" enable-background="new 0 0 300 150" xml:space="preserve">
<g>
	<g>
		<g>
			<path fill="#1C3665" d="M67.107,36.624c-0.057-0.176-0.218-0.296-0.404-0.296h-3.953c-0.185,0-0.349,0.12-0.403,0.296
				l-4.986,15.813c-0.041,0.129-0.017,0.269,0.063,0.376c0.077,0.11,0.205,0.175,0.342,0.175h2.718c0.188,0,0.353-0.123,0.407-0.303
				l3.434-11.631c0,0,0.089-0.29,0.4-0.29c0.317,0,0.393,0.303,0.393,0.303l1.595,5.513h-2.141c-0.189,0-0.357,0.128-0.408,0.31
				l-0.613,2.182c-0.035,0.128-0.01,0.266,0.07,0.371c0.081,0.106,0.205,0.169,0.337,0.169h3.645l0.959,3.079
				c0.056,0.176,0.221,0.298,0.405,0.298h2.722c0.136,0,0.263-0.065,0.342-0.175c0.08-0.108,0.104-0.248,0.063-0.376L67.107,36.624z
				"/>
			<path fill="#1C3665" d="M78.959,50.551c-0.018-0.117-0.084-0.224-0.183-0.29c-0.1-0.066-0.221-0.085-0.338-0.059
				c-0.441,0.11-0.865,0.171-1.19,0.171c-0.622,0-0.896-0.268-0.896-0.87v-6.06h2.429c0.233,0,0.424-0.188,0.424-0.422v-1.89
				c0-0.233-0.19-0.424-0.424-0.424h-2.429V37.79c0-0.121-0.053-0.239-0.146-0.318c-0.093-0.081-0.215-0.115-0.336-0.101
				l-2.501,0.35c-0.209,0.029-0.366,0.209-0.366,0.417v2.569h-1.36c-0.234,0-0.425,0.191-0.425,0.424v1.89
				c0,0.234,0.19,0.422,0.425,0.422h1.36v6.451c0,2.214,1.165,3.338,3.461,3.338c0.655,0,1.763-0.15,2.491-0.401
				c0.19-0.068,0.311-0.263,0.279-0.465L78.959,50.551z"/>
			<path fill="#1C3665" d="M83.591,35.992h-2.502c-0.233,0-0.423,0.189-0.423,0.421v16.15c0,0.232,0.189,0.424,0.423,0.424h2.502
				c0.233,0,0.423-0.192,0.423-0.424V36.417C84.014,36.182,83.824,35.992,83.591,35.992z"/>
			<path fill="#1C3665" d="M90.024,40.464c-1.268,0-2.808,0.2-3.927,0.508c-0.21,0.058-0.341,0.262-0.305,0.476l0.292,1.815
				c0.018,0.115,0.083,0.216,0.177,0.28c0.094,0.066,0.209,0.092,0.323,0.07c1.039-0.204,2.113-0.314,3.021-0.314
				c1.807,0,2.095,0.381,2.095,1.603v1.067h-2.682c-2.561,0-3.656,1.06-3.656,3.535c0,2.37,1.201,3.729,3.291,3.729
				c1.208,0,2.42-0.336,3.437-0.95l0.106,0.394c0.051,0.184,0.218,0.313,0.411,0.313h2.019c0.233,0,0.423-0.192,0.423-0.424v-7.612
				C95.049,41.681,93.688,40.464,90.024,40.464z M91.7,48.487v1.472c-0.414,0.221-1.165,0.538-2.067,0.538
				c-0.781,0-1.018-0.238-1.018-1.02c0-0.756,0.145-0.99,1.065-0.99H91.7z"/>
			<path fill="#1C3665" d="M101.317,45.388c-1.552-0.4-1.552-0.416-1.552-1.269c0-0.572,0.056-0.848,1.334-0.848
				c0.877,0,2.169,0.154,3,0.296c0.114,0.02,0.23-0.007,0.323-0.077c0.093-0.069,0.154-0.173,0.169-0.288l0.236-1.906
				c0.026-0.214-0.114-0.417-0.327-0.465c-0.958-0.224-2.294-0.368-3.4-0.368c-3.846,0-4.634,1.452-4.634,3.631
				c0,2.397,0.448,3.201,3.394,3.92c1.94,0.467,1.94,0.813,1.94,1.39c0,0.755-0.063,1.017-1.336,1.017
				c-1.022,0-2.207-0.159-3.248-0.437c-0.113-0.029-0.236-0.011-0.334,0.052c-0.101,0.062-0.169,0.165-0.191,0.28l-0.331,1.809
				c-0.038,0.209,0.085,0.414,0.287,0.48c1.135,0.369,2.767,0.625,3.965,0.625c3.725,0,4.487-1.558,4.487-3.9
				C105.098,46.747,104.641,46.268,101.317,45.388z"/>
			<path fill="#1C3665" d="M110.983,45.388c-1.553-0.4-1.553-0.416-1.553-1.269c0-0.572,0.057-0.848,1.335-0.848
				c0.877,0,2.167,0.154,2.997,0.296c0.116,0.02,0.234-0.007,0.325-0.077c0.094-0.067,0.154-0.173,0.167-0.288l0.238-1.906
				c0.027-0.214-0.114-0.417-0.323-0.465c-0.963-0.224-2.297-0.368-3.404-0.368c-3.846,0-4.637,1.452-4.637,3.631
				c0,2.397,0.447,3.201,3.396,3.92c1.94,0.467,1.94,0.813,1.94,1.39c0,0.755-0.064,1.017-1.333,1.017
				c-1.026,0-2.209-0.159-3.251-0.437c-0.113-0.029-0.236-0.013-0.336,0.052c-0.1,0.062-0.17,0.165-0.189,0.28l-0.333,1.809
				c-0.036,0.209,0.085,0.414,0.287,0.48c1.137,0.369,2.768,0.625,3.966,0.625c3.724,0,4.49-1.558,4.49-3.9
				C114.766,46.747,114.306,46.268,110.983,45.388z"/>
			<path fill="#1C3665" d="M119.077,35.991h-2.501c-0.232,0-0.423,0.191-0.423,0.423v2.221c0,0.234,0.19,0.424,0.423,0.424h2.501
				c0.235,0,0.425-0.189,0.425-0.424v-2.221C119.502,36.182,119.312,35.991,119.077,35.991z"/>
			<path fill="#1C3665" d="M119.077,40.708h-2.501c-0.232,0-0.423,0.191-0.423,0.424v11.432c0,0.232,0.19,0.424,0.423,0.424h2.501
				c0.235,0,0.425-0.192,0.425-0.424V41.132C119.502,40.898,119.312,40.708,119.077,40.708z"/>
			<path fill="#1C3665" d="M125.572,40.464c-1.267,0-2.806,0.2-3.925,0.508c-0.207,0.058-0.34,0.262-0.305,0.476l0.292,1.815
				c0.02,0.114,0.083,0.216,0.177,0.28c0.093,0.066,0.211,0.092,0.323,0.07c1.04-0.204,2.115-0.314,3.023-0.314
				c1.806,0,2.093,0.381,2.093,1.603v1.067h-2.679c-2.563,0-3.659,1.06-3.659,3.535c0,2.37,1.2,3.729,3.292,3.729
				c1.207,0,2.419-0.336,3.437-0.95l0.109,0.394c0.049,0.184,0.215,0.313,0.407,0.313h2.02c0.233,0,0.424-0.192,0.424-0.424v-7.612
				C130.6,41.681,129.238,40.464,125.572,40.464z M127.25,48.486v1.473c-0.413,0.221-1.166,0.538-2.068,0.538
				c-0.78,0-1.018-0.238-1.018-1.02c0-0.756,0.146-0.991,1.067-0.991H127.25z"/>
			<path fill="#1C3665" d="M139.851,40.464c-1.325,0-3.128,0.457-4.658,1.172l-0.183-0.624c-0.052-0.18-0.216-0.305-0.404-0.305
				h-1.854c-0.235,0-0.425,0.191-0.425,0.424v11.432c0,0.232,0.19,0.424,0.425,0.424h2.5c0.235,0,0.425-0.192,0.425-0.424v-7.918
				c0.9-0.457,2.166-0.933,2.923-0.933c0.563,0,0.773,0.209,0.773,0.774v8.077c0,0.232,0.192,0.424,0.425,0.424h2.5
				c0.236,0,0.425-0.192,0.425-0.424v-8.397C142.725,41.709,141.76,40.464,139.851,40.464z"/>
		</g>
	</g>
</g>
<g>
	<g>
		<g>
			<g>
				<path fill="#1C3665" d="M147.115,75.88c-3.323,0-6.68,0.819-8.955,1.671V65.102c0-0.626-0.51-1.134-1.135-1.134h-6.712
					c-0.626,0-1.127,0.508-1.127,1.134v42.876c0,0.543,0.391,1.019,0.928,1.113c4.139,0.755,9.023,1.02,11.955,1.02
					c12.604,0,15.182-5.357,15.182-13.407v-9.384C157.252,79.724,153.84,75.88,147.115,75.88z M142.459,102.316
					c-1.699,0-3.107-0.064-4.299-0.206V85.336c1.848-0.826,4.447-1.662,6.531-1.662c2.543,0,3.581,0.996,3.581,3.447v9.841
					C148.272,100.511,147.375,102.316,142.459,102.316z"/>
				<path fill="#1C3665" d="M188.122,76.535h-6.701c-0.626,0-1.135,0.51-1.135,1.126v21.238c-2.418,1.225-5.819,2.496-7.846,2.496
					c-1.51,0-2.067-0.557-2.067-2.069V77.661c0-0.616-0.516-1.126-1.149-1.126h-6.695c-0.636,0-1.137,0.51-1.137,1.126v22.522
					c0,6.585,2.593,9.927,7.698,9.927c3.557,0,8.397-1.221,12.485-3.144l0.493,1.672c0.148,0.484,0.583,0.817,1.091,0.817
					l4.963-0.001c0.628,0,1.135-0.509,1.135-1.136V77.661C189.257,77.045,188.75,76.535,188.122,76.535z"/>
				<path fill="#1C3665" d="M215.123,102.516c-0.043-0.316-0.228-0.594-0.479-0.773c-0.265-0.177-0.59-0.237-0.897-0.166
					c-1.924,0.439-3.941,0.676-5.835,0.676c-4.25,0-5.48-1.084-5.48-4.826v-8.861c0-3.747,1.23-4.829,5.48-4.829
					c1.01,0,3.529,0.145,5.835,0.673c0.308,0.07,0.633,0.013,0.897-0.171c0.26-0.174,0.44-0.453,0.479-0.771l0.797-5.306
					c0.079-0.56-0.249-1.092-0.797-1.251c-2.583-0.761-5.614-1.03-7.403-1.03c-10.134,0-14.269,3.69-14.269,12.75v8.729
					c0,9.057,4.135,12.752,14.269,12.752c2.46,0,5.296-0.394,7.403-1.027c0.548-0.163,0.876-0.7,0.797-1.257L215.123,102.516z"/>
				<path fill="#1C3665" d="M261.325,75.88c-8.994,0-13.743,4.479-13.743,12.947v8.467c0,8.741,4.454,12.816,14.01,12.816
					c3.888,0,8.036-0.683,11.372-1.862c0.53-0.19,0.848-0.747,0.735-1.307l-0.994-4.795c-0.064-0.308-0.257-0.581-0.522-0.74
					c-0.271-0.164-0.596-0.208-0.897-0.121c-3.087,0.871-6.012,1.297-8.973,1.297c-4.885,0-5.754-1.584-5.754-4.895v-1.159h16.648
					c0.633,0,1.135-0.502,1.135-1.137V89.22C274.342,80.115,270.209,75.88,261.325,75.88z M256.559,89.128V88.04
					c0-3.159,1.542-4.634,4.834-4.634c3.639,0,4.366,1.776,4.366,4.634v1.088H256.559z"/>
				<path fill="#1C3665" d="M100.016,76.52h-6.703c-0.627,0-1.136,0.512-1.136,1.135v30.653c0,0.628,0.509,1.135,1.136,1.135h6.703
					c0.642,0,1.141-0.507,1.141-1.135V77.654C101.157,77.031,100.658,76.52,100.016,76.52z"/>
				<path fill="#1C3665" d="M100.016,63.965h-6.703c-0.627,0-1.136,0.515-1.136,1.137v5.774c0,0.636,0.509,1.139,1.136,1.139h6.703
					c0.642,0,1.141-0.503,1.141-1.139v-5.774C101.157,64.479,100.658,63.965,100.016,63.965z"/>
				<g>
					<path fill="#1C3665" d="M83.133,86.069c2.777-1.527,3.983-3.67,3.983-6.964v-4.508c0-6.6-3.961-9.805-12.095-9.805h-16.55
						c-0.62,0-1.128,0.507-1.128,1.133v42.382c0,0.628,0.508,1.135,1.128,1.135h17.731c7.896,0,12.426-3.833,12.426-10.522v-4.656
						C88.628,90.272,86.602,87.294,83.133,86.069z M66.58,72.585h7.455c3.375,0,3.847,1.473,3.847,3.05v3.862
						c0,2.511-1.173,3.585-3.913,3.585h-1.612c-0.635,0-1.144,0.511-1.144,1.137v5.325c0,0.632,0.509,1.139,1.144,1.139h2.916
						c2.923,0,4.111,1.133,4.111,3.909v3.279c0,2.822-1.216,3.777-4.833,3.777h-7.97V72.585z"/>
				</g>
				<path fill="#1C3665" d="M125.202,102.928c-0.045-0.318-0.221-0.601-0.485-0.778c-0.268-0.177-0.599-0.236-0.908-0.158
					c-1.187,0.296-2.322,0.457-3.196,0.457c-1.66,0-2.395-0.721-2.395-2.332V83.873h6.511c0.627,0,1.133-0.508,1.133-1.135v-5.069
					c0-0.624-0.506-1.134-1.133-1.134h-6.511v-7.81c0-0.331-0.147-0.641-0.39-0.854c-0.25-0.219-0.584-0.317-0.909-0.271
					l-6.702,0.935c-0.56,0.08-0.978,0.56-0.978,1.127v6.873h-3.654c-0.625,0-1.136,0.51-1.136,1.134v5.069
					c0,0.627,0.51,1.135,1.136,1.135h3.654v17.295c0,5.934,3.116,8.946,9.273,8.946c1.754,0,4.729-0.404,6.673-1.08
					c0.523-0.178,0.832-0.697,0.751-1.243L125.202,102.928z"/>
				<path fill="#1C3665" d="M296.455,102.928c-0.045-0.32-0.229-0.601-0.494-0.781c-0.265-0.178-0.599-0.234-0.898-0.155
					c-1.194,0.294-2.321,0.457-3.204,0.457c-1.651,0-2.402-0.724-2.402-2.335V83.872h6.52c0.635,0,1.132-0.512,1.132-1.134v-5.069
					c0-0.624-0.497-1.134-1.132-1.134h-6.52v-7.811c0-0.331-0.132-0.642-0.384-0.854c-0.251-0.217-0.581-0.315-0.906-0.27
					l-6.703,0.935c-0.559,0.079-0.98,0.558-0.98,1.121v6.879h-3.651c-0.621,0-1.134,0.51-1.134,1.134v5.069
					c0,0.622,0.513,1.134,1.134,1.134h3.651v17.296c0,5.934,3.126,8.946,9.275,8.946c1.762,0,4.729-0.406,6.676-1.08
					c0.516-0.182,0.838-0.697,0.758-1.243L296.455,102.928z"/>
			</g>
		</g>
	</g>
</g>
<path fill="#1C3665" d="M246.54,107.547l-8.963-14.796l8.646-14.572c0.209-0.352,0.212-0.789,0.011-1.142
	c-0.202-0.355-0.58-0.574-0.986-0.574h-7.404c-0.406,0-0.781,0.217-0.983,0.568l-8.227,14.261V65.109
	c0-0.629-0.508-1.136-1.135-1.136h-6.702c-0.627,0-1.134,0.507-1.134,1.136v43.198c0,0.628,0.507,1.135,1.134,1.135h6.702
	c0.627,0,1.135-0.507,1.135-1.135V94.171l8.754,14.646c0.204,0.342,0.573,0.553,0.973,0.553h7.269c0.001,0,0.003,0,0.007,0
	c0.627,0,1.135-0.509,1.135-1.136C246.771,107.976,246.684,107.737,246.54,107.547z"/>
<path fill="#1C3665" d="M23.317,60.92L23.317,60.92L23.317,60.92c-12.133,0-22.039,3.261-22.039,7.311
	c0,1.067,2.646,16.36,3.695,22.428c0.471,2.719,7.5,6.708,18.338,6.708l0.011-0.032v0.032c10.837,0,17.867-3.989,18.337-6.708
	c1.05-6.067,3.695-21.36,3.695-22.428C45.355,64.181,35.448,60.92,23.317,60.92z M23.316,92.453c-3.869,0-7.006-3.138-7.006-7.008
	c0-3.867,3.137-7.004,7.006-7.004s7.006,3.137,7.006,7.004C30.322,89.315,27.185,92.453,23.316,92.453z M23.313,70.49
	c-7.794-0.014-14.111-1.367-14.109-3.025c0.002-1.659,6.324-2.994,14.118-2.98c7.794,0.013,14.112,1.366,14.109,3.026
	C37.429,69.169,31.107,70.503,23.313,70.49z"/>
<path fill="#1C3665" d="M39.156,96.736c-0.335,0-0.603,0.236-0.603,0.236s-5.428,4.299-15.237,4.299
	c-9.809,0-15.236-4.299-15.236-4.299s-0.269-0.236-0.603-0.236c-0.401,0-0.781,0.269-0.781,0.86c0,0.063,0.006,0.127,0.017,0.189
	c0.843,4.508,1.459,7.706,1.566,8.192c0.735,3.315,7.223,5.818,15.036,5.818l0,0l0,0h0.001l0,0c7.812,0,14.3-2.503,15.035-5.818
	c0.107-0.486,0.724-3.685,1.565-8.192c0.012-0.063,0.018-0.126,0.018-0.189C39.936,97.005,39.556,96.736,39.156,96.736z"/>
<circle fill="#1C3665" cx="23.31" cy="85.444" r="3.511"/>
</svg>
