<?xml version="1.0" encoding="utf-8"?>
<!-- Generator: Adobe Illustrator 16.0.3, SVG Export Plug-In . SVG Version: 6.00 Build 0)  -->
<!DOCTYPE svg PUBLIC "-//W3C//DTD SVG 1.1//EN" "http://www.w3.org/Graphics/SVG/1.1/DTD/svg11.dtd">
<svg version="1.1" id="Layer_1" xmlns="http://www.w3.org/2000/svg" xmlns:xlink="http://www.w3.org/1999/xlink" x="0px" y="0px"
	 width="300px" height="150px" viewBox="0 0 300 150" enable-background="new 0 0 300 150" xml:space="preserve">
<path fill="#31251C" d="M201.644,54.924c2.127,2.722,4.377,6.508,4.377,11.949c0,13.131-10.292,20.818-25.194,20.818
	c-3.788,0-7.219-0.471-9.347-1.063l-3.905,6.269l11.592,0.708c20.467,1.305,32.528,1.897,32.528,17.625
	c0,13.606-11.943,21.292-32.528,21.292c-21.41,0-29.572-5.442-29.572-14.786c0-5.325,2.366-8.157,6.506-12.068
	c-3.905-1.649-5.205-4.605-5.205-7.801c0-2.604,1.299-4.97,3.432-7.22c2.13-2.244,4.494-4.494,7.333-7.096
	c-5.795-2.839-10.173-8.991-10.173-17.747c0-13.602,8.99-22.944,27.087-22.944c5.086,0,8.164,0.468,10.886,1.183h23.068v10.052
	L201.644,54.924z M166.629,108.87c-1.54,1.89-3.075,3.899-3.075,6.269c0,4.729,6.03,6.151,14.313,6.151
	c6.861,0,16.207-0.48,16.207-6.859c0-3.793-4.495-4.026-10.177-4.382L166.629,108.87z M179.64,54.567
	c-6.507,0-11.354,3.195-11.354,10.886c0,5.794,3.194,9.818,11.004,9.818c6.62,0,11.117-3.901,11.117-10.058
	C190.406,58.237,186.383,54.567,179.64,54.567z"/>
<path fill="#31251C" d="M218.076,104.519v-9.342l6.036-0.825c1.656-0.239,1.892-0.593,1.892-2.371V57.204
	c0-1.299-0.354-2.131-1.54-2.482l-6.388-2.25l1.301-9.578h24.489V91.98c0,1.896,0.115,2.132,1.894,2.371l6.033,0.825v9.342H218.076z
	 M233.34,33.429c-6.744,0-10.646-3.907-10.646-10.652c0-6.737,3.902-10.407,10.646-10.407c6.861,0,10.765,3.669,10.765,10.407
	C244.104,29.522,240.201,33.429,233.34,33.429z"/>
<path fill="#31251C" d="M298.572,99.932c-5.088,2.482-12.54,4.73-19.285,4.73c-14.077,0-19.398-5.673-19.398-19.047v-30.99
	c0-0.708,0-1.184-0.949-1.184h-8.28V42.914c10.413-1.186,14.551-6.392,15.852-19.285h11.24v16.803c0,0.825,0,1.183,0.948,1.183
	h16.677v11.827h-17.625v28.271c0,6.979,1.658,9.698,8.043,9.698c3.315,0,6.743-0.826,9.582-1.891L298.572,99.932z"/>
<g>
	<path fill="#F42534" d="M123.298,68.889L69.21,14.804c-3.113-3.115-8.165-3.115-11.281,0L46.698,26.036l14.247,14.247
		c3.312-1.118,7.108-0.368,9.747,2.271c2.653,2.655,3.397,6.484,2.251,9.807l13.731,13.731c3.323-1.145,7.155-0.405,9.808,2.252
		c3.708,3.708,3.708,9.715,0,13.424c-3.709,3.709-9.717,3.709-13.428,0c-2.789-2.792-3.479-6.888-2.066-10.324L68.182,58.639
		l-0.001,33.7c0.904,0.446,1.757,1.043,2.511,1.795c3.708,3.706,3.708,9.714,0,13.426c-3.709,3.708-9.719,3.708-13.424,0
		c-3.708-3.712-3.708-9.72,0-13.426c0.917-0.916,1.977-1.607,3.108-2.071V58.05c-1.131-0.462-2.19-1.15-3.108-2.071
		c-2.809-2.807-3.485-6.929-2.045-10.378L41.179,31.554L4.092,68.639c-3.116,3.118-3.116,8.17,0,11.285l54.088,54.085
		c3.114,3.115,8.165,3.115,11.283,0l53.835-53.834C126.414,77.059,126.414,72.004,123.298,68.889z"/>
</g>
</svg>
