<?xml version="1.0" encoding="utf-8"?>
<!-- Generator: Adobe Illustrator 16.0.3, SVG Export Plug-In . SVG Version: 6.00 Build 0)  -->
<!DOCTYPE svg PUBLIC "-//W3C//DTD SVG 1.1//EN" "http://www.w3.org/Graphics/SVG/1.1/DTD/svg11.dtd">
<svg version="1.1" id="Layer_1" xmlns="http://www.w3.org/2000/svg" xmlns:xlink="http://www.w3.org/1999/xlink" x="0px" y="0px"
	 width="300px" height="150px" viewBox="0 0 300 150" enable-background="new 0 0 300 150" xml:space="preserve">
<g>
	<g>
		<path fill-rule="evenodd" clip-rule="evenodd" fill="#191717" d="M63.609,15.432c-33.347,0-60.388,27.035-60.388,60.388
			c0,26.681,17.303,49.316,41.297,57.302c3.018,0.559,4.126-1.311,4.126-2.905c0-1.439-0.056-6.197-0.082-11.243
			c-16.8,3.653-20.345-7.125-20.345-7.125c-2.747-6.979-6.705-8.836-6.705-8.836c-5.479-3.748,0.413-3.671,0.413-3.671
			c6.063,0.426,9.257,6.224,9.257,6.224c5.386,9.231,14.127,6.563,17.573,5.02c0.542-3.902,2.106-6.567,3.834-8.075
			c-13.413-1.526-27.514-6.705-27.514-29.844c0-6.593,2.359-11.98,6.223-16.209c-0.627-1.521-2.694-7.663,0.585-15.981
			c0,0,5.071-1.622,16.61,6.191c4.817-1.338,9.983-2.009,15.116-2.033c5.131,0.023,10.301,0.694,15.127,2.033
			c11.527-7.813,16.59-6.191,16.59-6.191c3.287,8.318,1.221,14.46,0.594,15.981c3.871,4.229,6.215,9.616,6.215,16.209
			c0,23.194-14.127,28.301-27.574,29.796c2.166,1.874,4.096,5.549,4.096,11.183c0,8.08-0.07,14.583-0.07,16.572
			c0,1.607,1.088,3.49,4.148,2.897c23.98-7.994,41.262-30.622,41.262-57.294C123.996,42.467,96.959,15.432,63.609,15.432z"/>
		<path fill="#191717" d="M26.093,102.135c-0.133,0.301-0.605,0.391-1.035,0.185c-0.438-0.197-0.684-0.606-0.542-0.907
			c0.13-0.309,0.603-0.395,1.04-0.188C25.995,101.421,26.245,101.834,26.093,102.135L26.093,102.135z M25.35,101.584"/>
		<path fill="#191717" d="M28.54,104.863c-0.288,0.267-0.852,0.143-1.233-0.279c-0.396-0.421-0.469-0.984-0.177-1.255
			c0.297-0.267,0.843-0.142,1.238,0.279C28.763,104.034,28.84,104.593,28.54,104.863L28.54,104.863z M27.963,104.245"/>
		<path fill="#191717" d="M30.92,108.341c-0.37,0.258-0.976,0.017-1.35-0.521c-0.37-0.537-0.37-1.182,0.009-1.439
			c0.374-0.258,0.971-0.025,1.35,0.507C31.298,107.434,31.298,108.078,30.92,108.341L30.92,108.341z M30.92,108.341"/>
		<path fill="#191717" d="M34.182,111.701c-0.331,0.365-1.036,0.267-1.552-0.231c-0.528-0.486-0.675-1.178-0.344-1.543
			c0.336-0.365,1.045-0.263,1.564,0.231C34.375,110.645,34.535,111.34,34.182,111.701L34.182,111.701z M34.182,111.701"/>
		<path fill="#191717" d="M38.682,113.652c-0.146,0.473-0.825,0.688-1.509,0.486c-0.684-0.207-1.13-0.761-0.992-1.238
			c0.142-0.477,0.824-0.7,1.513-0.485C38.376,112.621,38.824,113.171,38.682,113.652L38.682,113.652z M38.682,113.652"/>
		<path fill="#191717" d="M43.625,114.014c0.017,0.498-0.563,0.911-1.281,0.92c-0.722,0.017-1.307-0.387-1.314-0.877
			c0-0.503,0.567-0.911,1.289-0.924C43.036,113.119,43.625,113.52,43.625,114.014L43.625,114.014z M43.625,114.014"/>
		<path fill="#191717" d="M48.223,113.231c0.086,0.485-0.413,0.984-1.126,1.117c-0.701,0.129-1.35-0.172-1.439-0.653
			c-0.087-0.498,0.421-0.997,1.121-1.126C47.493,112.445,48.132,112.737,48.223,113.231L48.223,113.231z M48.223,113.231"/>
	</g>
	<g>
		<path fill="#181617" d="M155.7,108.03h-14.715c-0.379,0-0.687,0.284-0.687,0.636v6.655c0,0.352,0.308,0.638,0.687,0.638h5.74
			v8.268c0,0-1.29,0.407-4.853,0.407c-4.203,0-10.076-1.422-10.076-13.368c0-11.948,6.116-13.521,11.856-13.521
			c4.97,0,7.11,0.809,8.473,1.199c0.428,0.121,0.824-0.273,0.824-0.624l1.641-6.432c0-0.164-0.06-0.362-0.263-0.496
			c-0.553-0.365-3.929-2.112-12.455-2.112c-9.822,0-19.898,3.866-19.898,22.452c0,18.585,11.536,21.354,21.257,21.354
			c8.049,0,12.932-3.182,12.932-3.182c0.201-0.103,0.223-0.364,0.223-0.482v-20.757C156.387,108.314,156.078,108.03,155.7,108.03z"
			/>
		<path fill="#181617" d="M231.529,91.508c0-0.354-0.304-0.641-0.683-0.641h-8.285c-0.379,0-0.686,0.286-0.686,0.641
			c0,0.001,0.002,14.812,0.002,14.812h-12.914V91.508c0-0.354-0.306-0.641-0.684-0.641h-8.285c-0.376,0-0.684,0.286-0.684,0.641
			v40.105c0,0.354,0.308,0.642,0.684,0.642h8.285c0.378,0,0.684-0.288,0.684-0.642v-17.155h12.914c0,0-0.024,17.154-0.024,17.155
			c0,0.354,0.309,0.642,0.687,0.642h8.306c0.379,0,0.683-0.288,0.684-0.642V91.508z"/>
		<g>
			<g>
				<path fill="#181617" d="M171.333,96.771c0-2.761-2.392-4.99-5.343-4.99c-2.947,0-5.341,2.229-5.341,4.99
					c0,2.756,2.394,4.993,5.341,4.993C168.941,101.764,171.333,99.526,171.333,96.771z"/>
				<path fill="#181617" d="M170.741,123.152c0-1.026,0-18.513,0-18.513c0-0.351-0.307-0.639-0.686-0.639h-8.259
					c-0.379,0-0.718,0.362-0.718,0.714c0,0,0,22.275,0,26.523c0,0.779,0.525,1.011,1.205,1.011c0,0,3.524,0,7.441,0
					c0.814,0,1.016-0.371,1.016-1.024C170.741,129.804,170.741,124.234,170.741,123.152z"/>
			</g>
		</g>
		<path fill="#181617" d="M263.016,104.063h-8.222c-0.377,0-0.684,0.287-0.684,0.641v19.665c0,0-2.09,1.413-5.054,1.413
			s-3.75-1.244-3.75-3.93c0-2.688,0-17.148,0-17.148c0-0.354-0.308-0.641-0.684-0.641h-8.346c-0.376,0-0.685,0.287-0.685,0.641
			c0,0,0,10.473,0,18.447c0,7.977,4.805,9.928,11.416,9.928c5.422,0,9.794-2.771,9.794-2.771s0.208,1.46,0.304,1.633
			c0.095,0.174,0.339,0.348,0.604,0.348l5.309-0.021c0.375,0,0.685-0.289,0.685-0.641l-0.003-26.922
			C263.701,104.35,263.394,104.063,263.016,104.063z"/>
		<path fill="#181617" d="M285.485,103.16c-4.67,0-7.845,1.928-7.845,1.928v-13.58c0-0.354-0.307-0.641-0.684-0.641h-8.31
			c-0.377,0-0.684,0.286-0.684,0.641v40.105c0,0.354,0.307,0.642,0.686,0.642c0.001,0,5.763,0,5.764,0
			c0.26,0,0.457-0.124,0.602-0.341c0.143-0.216,0.352-1.849,0.352-1.849s3.396,2.979,9.827,2.979c7.55,0,11.881-3.544,11.881-15.906
			C297.074,104.776,290.158,103.16,285.485,103.16z M282.242,125.757c-2.852-0.08-4.784-1.276-4.784-1.276v-12.701
			c0,0,1.908-1.082,4.248-1.275c2.961-0.246,5.814,0.582,5.814,7.115C287.521,124.509,286.231,125.868,282.242,125.757z"/>
		<path fill="#181617" d="M194.553,103.997h-6.215c0,0-0.01-7.594-0.01-7.596c0-0.286-0.161-0.431-0.52-0.431h-8.469
			c-0.328,0-0.506,0.134-0.506,0.427v7.849c0,0-4.244,0.948-4.531,1.024c-0.286,0.078-0.496,0.321-0.496,0.611v4.932
			c0,0.355,0.306,0.642,0.686,0.642h4.342c0,0,0,5.158,0,11.865c0,8.814,6.683,9.68,11.191,9.68c2.061,0,4.524-0.612,4.932-0.751
			c0.247-0.084,0.39-0.319,0.39-0.575l0.007-5.426c0-0.354-0.323-0.641-0.687-0.641c-0.362,0-1.289,0.136-2.243,0.136
			c-3.052,0-4.086-1.313-4.086-3.011c0-1.7,0-11.277,0-11.277h6.215c0.378,0,0.685-0.286,0.685-0.642v-6.177
			C195.237,104.282,194.931,103.997,194.553,103.997z"/>
	</g>
</g>
</svg>
